Coordinates
version=1
nRows=8
nColumns=40
inDegrees=yes

Units are S.I. units (second, meters, Newtons, ...)
If the header above contains a line with 'inDegrees', this indicates whether rotational values are in degrees (yes) or radians (no).

endheader
time	pelvis_tilt	pelvis_list	pelvis_rotation	pelvis_tx	pelvis_ty	pelvis_tz	hip_flexion_r	hip_adduction_r	hip_rotation_r	knee_angle_r	knee_angle_r_beta	ankle_angle_r	subtalar_angle_r	mtp_angle_r	hip_flexion_l	hip_adduction_l	hip_rotation_l	knee_angle_l	knee_angle_l_beta	ankle_angle_l	subtalar_angle_l	mtp_angle_l	lumbar_extension	lumbar_bending	lumbar_rotation	arm_flex_r	arm_add_r	arm_rot_r	elbow_flex_r	pro_sup_r	wrist_flex_r	wrist_dev_r	arm_flex_l	arm_add_l	arm_rot_l	elbow_flex_l	pro_sup_l	wrist_flex_l	wrist_dev_l
      2.70000000	      5.50435723	     -7.27774868	     -3.04943657	     -0.23139547	      1.05951979	     -1.01338651	      0.19454948	     -3.23040103	     -1.46400366	     72.13636956	      1.25901716	    -15.01445216	      0.00000000	      0.00000000	     -0.13172899	     -3.48148937	    -11.94245864	     21.00585063	      0.36662126	     -0.67450254	      0.00000000	      0.00000000	    -11.42915862	      1.21892100	      8.49520874	     89.71421094	    -21.88758293	     45.59668418	     35.23316066	     85.06011608	      0.00000000	      0.00000000	     89.70261396	    -17.93032043	     55.73933088	     40.28403219	     86.60374820	      0.00000000	      0.00000000
      2.70500000	      5.46311107	     -7.25093539	     -3.09469484	     -0.23131133	      1.05946835	     -1.01327947	      0.20561479	     -3.27321035	     -1.47673618	     72.07941241	      1.25802307	    -14.87031829	      0.00000000	      0.00000000	     -0.10879077	     -3.47095647	    -12.03954059	     20.97955651	      0.36616234	     -0.69611006	      0.00000000	      0.00000000	    -11.37687564	      1.19497488	      8.36830398	     89.70828286	    -21.54953766	     45.21427812	     34.96297559	     85.50233041	      0.00000000	      0.00000000	     89.70782719	    -18.21224124	     55.85829277	     40.50284328	     86.53020832	      0.00000000	      0.00000000
      2.71000000	      5.45601255	     -7.24905173	     -3.06197657	     -0.23126705	      1.05941442	     -1.01331586	      0.18014380	     -3.29853163	     -1.55824578	     72.00849441	      1.25678532	    -14.96108011	      0.00000000	      0.00000000	     -0.06541119	     -3.50026181	    -12.12212453	     21.05678997	      0.36751031	     -0.70429317	      0.00000000	      0.00000000	    -11.35917892	      1.18951906	      8.32024325	     89.71062978	    -21.53778971	     45.16684979	     34.98493483	     85.47010432	      0.00000000	      0.00000000	     89.71256063	    -18.22641545	     55.83787089	     40.51208238	     86.53143896	      0.00000000	      0.00000000
      2.71500000	      5.42425570	     -7.25061081	     -3.05367576	     -0.23115434	      1.05931950	     -1.01329331	      0.17930356	     -3.32088612	     -1.63236061	     71.94770322	      1.25572431	    -14.91622793	      0.00000000	      0.00000000	     -0.01945603	     -3.53188574	    -12.12403065	     21.09677985	      0.36820827	     -0.66443888	      0.00000000	      0.00000000	    -11.31230750	      1.18988335	      8.28722087	     89.71322952	    -21.52335326	     45.12704101	     35.01725667	     85.54096883	      0.00000000	      0.00000000	     89.71410683	    -18.24735045	     55.77744585	     40.54216388	     86.48878329	      0.00000000	      0.00000000
      2.72000000	      5.45346934	     -7.18313233	     -3.05959931	     -0.23103100	      1.05935225	     -1.01327557	      0.11439404	     -3.42669380	     -1.68607756	     71.88771517	      1.25467732	    -14.90888887	      0.00000000	      0.00000000	     -0.05680486	     -3.47712267	    -12.18730133	     21.09432235	      0.36816538	     -0.72836321	      0.00000000	      0.00000000	    -11.33522879	      1.10531048	      8.25423962	     89.71561257	    -21.49144856	     45.06600084	     35.03366758	     85.48624863	      0.00000000	      0.00000000	     89.71640771	    -18.28686533	     55.69693628	     40.57960521	     86.53980871	      0.00000000	      0.00000000
      2.72500000	      5.39382690	     -7.22727951	     -2.99084979	     -0.23098803	      1.05913953	     -1.01331514	      0.13392906	     -3.40006326	     -1.82892618	     71.82493029	      1.25358152	    -14.91575376	      0.00000000	      0.00000000	      0.06616980	     -3.57120689	    -12.21387856	     21.22223660	      0.37039790	     -0.66833217	      0.00000000	      0.00000000	    -11.26074607	      1.16110371	      8.15364361	     89.71723101	    -21.45507930	     45.04000514	     35.04237101	     85.62082276	      0.00000000	      0.00000000	     89.71855508	    -18.32931053	     55.68167316	     40.60920866	     86.44679051	      0.00000000	      0.00000000
      2.73000000	      5.38072687	     -7.21652594	     -2.94853842	     -0.23094387	      1.05906122	     -1.01333027	      0.11110740	     -3.42785118	     -1.91912478	     71.76069074	      1.25246033	    -14.92515059	      0.00000000	      0.00000000	      0.11500350	     -3.59064263	    -12.22599669	     21.29502242	      0.37166826	     -0.67074362	      0.00000000	      0.00000000	    -11.23657913	      1.14494474	      8.09552191	     89.71674489	    -21.44093388	     44.94606719	     35.07768200	     85.53121982	      0.00000000	      0.00000000	     89.72479127	    -18.33956354	     55.61527630	     40.58712184	     86.47118661	      0.00000000	      0.00000000
      2.73500000	      5.38069933	     -7.20590123	     -2.88917220	     -0.23082058	      1.05891178	     -1.01337522	      0.06326741	     -3.48602462	     -2.06714722	     71.69840904	      1.25137331	    -14.91451045	      0.00000000	      0.00000000	      0.16842624	     -3.61638923	    -12.28844457	     21.40896953	      0.37365701	     -0.58963526	      0.00000000	      0.00000000	    -11.22261483	      1.13552019	      8.01899825	     89.72125308	    -21.44689075	     44.94941214	     35.13633711	     85.33238105	      0.00000000	      0.00000000	     89.72766345	    -18.36886496	     55.56575753	     40.62786347	     86.58641342	      0.00000000	      0.00000000
